<svg width="64" height="64" viewBox="0 0 64 64" fill="none" xmlns="http://www.w3.org/2000/svg">
<path d="M19 17V23L13 26L14 31L11 32L8 24L19 17Z" fill="#F9E109" id="id_135"></path>
<path d="M19 17V23L25 26L24 31L27 32L30 24L19 17Z" fill="#F9E109" id="id_136"></path>
<path d="M19 23L13 26L14 31L11 32L10.37 30.33C10.7285 30.0432 11.0179 29.6796 11.217 29.2659C11.4161 28.8522 11.5196 28.3991 11.52 27.94C11.5199 27.7319 11.4998 27.5243 11.46 27.32C11.3296 26.6526 11.4212 25.9609 11.721 25.3505C12.0207 24.7402 12.5121 24.2448 13.12 23.94L13.28 23.86C13.6187 23.6822 13.8859 23.3935 14.037 23.0421C14.1881 22.6907 14.2139 22.2981 14.11 21.93C14.0378 21.6252 14.0009 21.3132 14 21C13.9975 20.7037 14.0311 20.4082 14.1 20.12L19 17V23Z" fill="#FCBC04" id="id_137"></path>
<path d="M27.93 29.53L27 32L24 31L25 26L19 23V17L23.9 20.12C23.9689 20.4082 24.0025 20.7037 24 21C24.0017 21.0701 23.9983 21.1403 23.99 21.21C23.967 21.5779 24.0523 21.9444 24.2354 22.2643C24.4184 22.5842 24.6912 22.8434 25.02 23.01C25.508 23.2629 25.9145 23.6488 26.1923 24.1231C26.4701 24.5974 26.608 25.1406 26.59 25.69C26.5899 25.9114 26.5698 26.1323 26.53 26.35C26.4121 26.9595 26.483 27.5905 26.7331 28.1588C26.9833 28.727 27.4008 29.2053 27.93 29.53V29.53Z" fill="#FCBC04" id="id_138"></path>
<path d="M34 8L17 19L21 21L37 13L34 8Z" fill="#F9E109" id="id_139"></path>
<path d="M37 13L21 21L17 19L22.89 15.19C23.4804 15.6095 24.1736 15.8609 24.8957 15.9173C25.6178 15.9736 26.3417 15.8329 26.99 15.51L28.29 14.85C28.1007 14.2515 28.0029 13.6278 28 13C27.9988 12.6003 28.039 12.2015 28.12 11.81L34 8L37 13Z" fill="#FCBC04" id="id_140"></path>
<path d="M51 28L44 31L33 12L37.343 8.10101L51 28Z" fill="#F9E109" id="id_141"></path>
<path d="M51 28L44 31L33 12L37.05 8.35997L37.34 8.09998L37.72 8.64997L40.97 13.39C40.9902 13.5927 41.0002 13.7963 41 14C41.0051 15.2401 40.6203 16.4505 39.9 17.46L40.59 18.65C41.1375 19.5974 41.9812 20.3387 42.9912 20.7597C44.0013 21.1807 45.1217 21.2581 46.18 20.98L51 28Z" fill="#FCBC04" id="id_142"></path>
<path d="M52 29H42V51H52V29Z" fill="#F9E109" id="id_143"></path>
<path d="M47 36.91V41C47 42.3261 47.5268 43.5979 48.4645 44.5355C49.4021 45.4732 50.6739 46 52 46V51H42V29H52V31C51.9986 32.4169 51.4958 33.7875 50.5806 34.8692C49.6655 35.9509 48.3971 36.6739 47 36.91Z" fill="#FCBC04" id="id_144"></path>
<path d="M19 24C21.2091 24 23 22.2091 23 20C23 17.7909 21.2091 16 19 16C16.7909 16 15 17.7909 15 20C15 22.2091 16.7909 24 19 24Z" fill="#F8664F" id="id_145"></path>
<path d="M27 37H11V51H27V37Z" fill="#F9E109" id="id_146"></path>
<path d="M22 37H16V41H22V37Z" fill="#F7F754" id="id_147"></path>
<path d="M47 35C50.3137 35 53 32.3137 53 29C53 25.6863 50.3137 23 47 23C43.6863 23 41 25.6863 41 29C41 32.3137 43.6863 35 47 35Z" fill="#F8664F" id="id_148"></path>
<path d="M47 31C48.1046 31 49 30.1046 49 29C49 27.8954 48.1046 27 47 27C45.8954 27 45 27.8954 45 29C45 30.1046 45.8954 31 47 31Z" fill="#F9E109" id="id_149"></path>
<path d="M52.12 32.12C51.6489 32.8983 51.0069 33.5593 50.2426 34.0529C49.4783 34.5465 48.6118 34.8598 47.7086 34.9692C46.8054 35.0786 45.8892 34.9811 45.0292 34.6842C44.1692 34.3873 43.388 33.8987 42.7447 33.2554C42.1013 32.612 41.6127 31.8308 41.3158 30.9708C41.0189 30.1109 40.9214 29.1946 41.0308 28.2914C41.1402 27.3882 41.4535 26.5217 41.9472 25.7574C42.4408 24.9932 43.1017 24.3512 43.88 23.88C43.3016 24.8177 42.9968 25.8983 43 27C43 28.5913 43.6322 30.1174 44.7574 31.2426C45.8826 32.3679 47.4087 33 49 33C50.1017 33.0032 51.1824 32.6984 52.12 32.12Z" fill="#CC5144" id="id_150"></path>
<path d="M48.82 29.82C48.6881 30.1166 48.4861 30.3766 48.2313 30.5777C47.9765 30.7787 47.6766 30.9147 47.3575 30.9739C47.0383 31.0332 46.7096 31.0139 46.3996 30.9177C46.0896 30.8215 45.8077 30.6513 45.5782 30.4217C45.3487 30.1922 45.1785 29.9103 45.0823 29.6004C44.9861 29.2904 44.9668 28.9616 45.026 28.6425C45.0853 28.3234 45.2213 28.0235 45.4223 27.7687C45.6234 27.5139 45.8834 27.3118 46.18 27.18C46.0593 27.4364 45.9978 27.7166 46 28C46.0016 28.5299 46.2128 29.0377 46.5875 29.4125C46.9622 29.7872 47.47 29.9984 48 30C48.2833 30.0022 48.5636 29.9407 48.82 29.82V29.82Z" fill="#FCBC04" id="id_151"></path>
<path d="M35 17C38.3137 17 41 14.3137 41 11C41 7.68629 38.3137 5 35 5C31.6863 5 29 7.68629 29 11C29 14.3137 31.6863 17 35 17Z" fill="#F8664F" id="id_152"></path>
<path d="M35 13C36.1046 13 37 12.1046 37 11C37 9.89543 36.1046 9 35 9C33.8954 9 33 9.89543 33 11C33 12.1046 33.8954 13 35 13Z" fill="#F9E109" id="id_153"></path>
<path d="M40.12 14.12C39.6489 14.8983 39.0069 15.5593 38.2426 16.0529C37.4783 16.5465 36.6118 16.8598 35.7086 16.9692C34.8054 17.0786 33.8892 16.9811 33.0292 16.6842C32.1692 16.3873 31.388 15.8987 30.7447 15.2554C30.1013 14.612 29.6127 13.8308 29.3158 12.9708C29.0189 12.1108 28.9214 11.1946 29.0308 10.2914C29.1402 9.38819 29.4535 8.52168 29.9472 7.75743C30.4408 6.99317 31.1017 6.35117 31.88 5.88C31.3016 6.81765 30.9968 7.89831 31 9C31 10.5913 31.6322 12.1174 32.7574 13.2426C33.8826 14.3679 35.4087 15 37 15C38.1017 15.0032 39.1824 14.6984 40.12 14.12V14.12Z" fill="#CC5144" id="id_154"></path>
<path d="M36.82 11.82C36.6881 12.1166 36.4861 12.3766 36.2313 12.5777C35.9765 12.7787 35.6766 12.9147 35.3575 12.9739C35.0383 13.0332 34.7096 13.0139 34.3996 12.9177C34.0896 12.8215 33.8077 12.6513 33.5782 12.4217C33.3487 12.1922 33.1785 11.9103 33.0823 11.6004C32.9861 11.2904 32.9668 10.9616 33.026 10.6425C33.0853 10.3234 33.2213 10.0235 33.4223 9.76869C33.6234 9.51389 33.8834 9.31184 34.18 9.17999C34.0593 9.43639 33.9978 9.71662 34 9.99999C34.0016 10.5299 34.2128 11.0377 34.5875 11.4125C34.9622 11.7872 35.47 11.9984 36 12C36.2833 12.0022 36.5636 11.9407 36.82 11.82V11.82Z" fill="#FCBC04" id="id_155"></path>
<path d="M22.64 21.64C22.3752 22.2305 21.9708 22.7479 21.4617 23.1475C20.9526 23.5472 20.3541 23.8172 19.7175 23.9343C19.081 24.0513 18.4255 24.012 17.8075 23.8197C17.1896 23.6273 16.6276 23.2877 16.1699 22.8301C15.7123 22.3724 15.3727 21.8104 15.1803 21.1924C14.988 20.5745 14.9486 19.919 15.0657 19.2825C15.1828 18.6459 15.4528 18.0474 15.8525 17.5383C16.2521 17.0292 16.7695 16.6248 17.36 16.36C17.1233 16.8743 17.0005 17.4338 17 18C17 19.0609 17.4214 20.0783 18.1716 20.8284C18.9217 21.5786 19.9391 22 21 22C21.5662 21.9995 22.1256 21.8767 22.64 21.64Z" fill="#CC5144" id="id_156"></path>
<path d="M27 45V51H11V37H19V39C19 40.5913 19.6321 42.1174 20.7574 43.2426C21.8826 44.3679 23.4087 45 25 45H27Z" fill="#FCBC04" id="id_157"></path>
<path d="M19.35 41H16V37H19V39C18.9982 39.6821 19.1166 40.3591 19.35 41V41Z" fill="#F9E109" id="id_158"></path>
<path d="M58 52V57L32 56V50.77C31.9998 49.9875 32.1833 49.2159 32.5357 48.5173C32.8881 47.8187 33.3996 47.2125 34.0289 46.7475C34.6583 46.2826 35.388 45.9718 36.1593 45.8402C36.9306 45.7087 37.7221 45.76 38.47 45.99L58 52Z" fill="#E9F1F2" id="id_159"></path>
<path d="M32 50.77V56L6 57V52L25.53 45.99C26.2779 45.76 27.0694 45.7087 27.8407 45.8402C28.612 45.9718 29.3417 46.2826 29.9711 46.7475C30.6004 47.2125 31.1119 47.8187 31.4643 48.5173C31.8167 49.2159 32.0002 49.9875 32 50.77Z" fill="#E9F1F2" id="id_160"></path>
<path d="M58 54V57L32 56V52.77C31.9998 51.9875 32.1833 51.2159 32.5357 50.5173C32.8881 49.8187 33.3996 49.2125 34.0289 48.7475C34.6583 48.2826 35.388 47.9718 36.1593 47.8402C36.9306 47.7087 37.7221 47.76 38.47 47.99L58 54Z" fill="#D0D8DA" id="id_161"></path>
<path d="M32 52.77V56L6 57V54L25.53 47.99C26.2779 47.76 27.0694 47.7087 27.8407 47.8402C28.612 47.9718 29.3417 48.2826 29.9711 48.7475C30.6004 49.2125 31.1119 49.8187 31.4643 50.5173C31.8167 51.2159 32.0002 51.9875 32 52.77V52.77Z" fill="#D0D8DA" id="id_162"></path>
<path d="M61 57V61L38.55 57.9C38.4075 57.8804 38.2638 57.8704 38.12 57.87C37.2913 57.8716 36.4971 58.2022 35.912 58.7891C35.327 59.376 34.9989 60.1713 35 61H29C29.0009 60.5533 28.906 60.1115 28.7216 59.7046C28.5372 59.2977 28.2677 58.9351 27.9312 58.6413C27.5947 58.3475 27.1991 58.1292 26.771 58.0014C26.343 57.8735 25.8925 57.8389 25.45 57.9L3 61V57L27.19 52C27.7711 51.8798 28.3717 51.8905 28.9482 52.0311C29.5247 52.1718 30.0626 52.4389 30.5231 52.8132C30.9836 53.1876 31.355 53.6596 31.6104 54.1952C31.8659 54.7308 31.9989 55.3166 32 55.91C32.0011 55.3166 32.1341 54.7308 32.3896 54.1952C32.645 53.6596 33.0164 53.1876 33.4769 52.8132C33.9374 52.4389 34.4753 52.1718 35.0518 52.0311C35.6283 51.8905 36.2289 51.8798 36.81 52L61 57Z" fill="#84D2F4" id="id_163"></path>
<path d="M61 59V61L38.55 57.9C38.4075 57.8804 38.2638 57.8704 38.12 57.87C37.2913 57.8716 36.4971 58.2022 35.912 58.7891C35.327 59.376 34.9989 60.1713 35 61H29C29.0009 60.5533 28.906 60.1115 28.7216 59.7046C28.5372 59.2977 28.2677 58.9351 27.9312 58.6413C27.5947 58.3475 27.1991 58.1292 26.771 58.0014C26.343 57.8735 25.8925 57.8389 25.45 57.9L3 61V59L27.19 54C27.7711 53.8798 28.3717 53.8905 28.9482 54.0311C29.5247 54.1718 30.0626 54.4389 30.5231 54.8132C30.9836 55.1876 31.355 55.6596 31.6104 56.1952C31.8659 56.7308 31.9989 57.3166 32 57.91C32.0011 57.3166 32.1341 56.7308 32.3896 56.1952C32.645 55.6596 33.0164 55.1876 33.4769 54.8132C33.9374 54.4389 34.4753 54.1718 35.0518 54.0311C35.6283 53.8905 36.2289 53.8798 36.81 54L61 59Z" fill="#9fb1b5" id="id_164"></path>
<path d="M44 29C44 29.5933 44.1759 30.1734 44.5056 30.6667C44.8352 31.1601 45.3038 31.5446 45.852 31.7716C46.4001 31.9987 47.0033 32.0581 47.5853 31.9424C48.1672 31.8266 48.7018 31.5409 49.1213 31.1213C49.5409 30.7018 49.8266 30.1672 49.9424 29.5853C50.0581 29.0033 49.9987 28.4001 49.7716 27.8519C49.5446 27.3038 49.1601 26.8352 48.6667 26.5056C48.1734 26.1759 47.5933 26 47 26C46.2044 26 45.4413 26.3161 44.8787 26.8787C44.3161 27.4413 44 28.2044 44 29ZM48 29C48 29.1978 47.9414 29.3911 47.8315 29.5556C47.7216 29.72 47.5654 29.8482 47.3827 29.9239C47.2 29.9996 46.9989 30.0194 46.8049 29.9808C46.6109 29.9422 46.4327 29.847 46.2929 29.7071C46.153 29.5673 46.0578 29.3891 46.0192 29.1951C45.9806 29.0011 46.0004 28.8 46.0761 28.6173C46.1518 28.4346 46.28 28.2784 46.4444 28.1685C46.6089 28.0586 46.8022 28 47 28C47.2652 28 47.5196 28.1054 47.7071 28.2929C47.8946 28.4804 48 28.7348 48 29Z" fill="#323232" id="id_165"></path>
<path d="M35 8C34.4067 8 33.8266 8.17595 33.3333 8.50559C32.8399 8.83524 32.4554 9.30377 32.2284 9.85195C32.0013 10.4001 31.9419 11.0033 32.0576 11.5853C32.1734 12.1672 32.4591 12.7018 32.8787 13.1213C33.2982 13.5409 33.8328 13.8266 34.4147 13.9424C34.9967 14.0581 35.5999 13.9987 36.148 13.7716C36.6962 13.5446 37.1648 13.1601 37.4944 12.6667C37.8241 12.1734 38 11.5933 38 11C38 10.2044 37.6839 9.44129 37.1213 8.87868C36.5587 8.31607 35.7957 8 35 8ZM35 12C34.8022 12 34.6089 11.9414 34.4444 11.8315C34.28 11.7216 34.1518 11.5654 34.0761 11.3827C34.0004 11.2 33.9806 10.9989 34.0192 10.8049C34.0578 10.6109 34.153 10.4327 34.2929 10.2929C34.4327 10.153 34.6109 10.0578 34.8049 10.0192C34.9989 9.98063 35.2 10.0004 35.3827 10.0761C35.5654 10.1518 35.7216 10.28 35.8315 10.4444C35.9414 10.6089 36 10.8022 36 11C36 11.2652 35.8946 11.5196 35.7071 11.7071C35.5196 11.8946 35.2652 12 35 12Z" fill="#323232" id="id_166"></path>
<path d="M19 21C19.5523 21 20 20.5523 20 20C20 19.4477 19.5523 19 19 19C18.4477 19 18 19.4477 18 20C18 20.5523 18.4477 21 19 21Z" fill="#323232" id="id_167"></path>
<path d="M61.2 56.021L37.013 51.016C36.3182 50.8722 35.6008 50.8786 34.9087 51.0347C34.2166 51.1907 33.5658 51.4929 33 51.921V51C32.9949 50.9612 32.9873 50.9228 32.977 50.885C32.9871 50.8472 32.9947 50.8088 33 50.77C32.9998 50.1439 33.1466 49.5265 33.4286 48.9675C33.7106 48.4085 34.1198 47.9235 34.6234 47.5515C35.127 47.1795 35.7109 46.9309 36.3281 46.8257C36.9453 46.7206 37.5786 46.7618 38.177 46.946L57.706 52.956C57.8315 52.9946 57.9635 53.0081 58.0942 52.9957C58.225 52.9834 58.352 52.9454 58.4681 52.8839C58.5842 52.8224 58.687 52.7387 58.7707 52.6375C58.8544 52.5363 58.9174 52.4195 58.956 52.294C58.9946 52.1685 59.0081 52.0365 58.9957 51.9058C58.9834 51.775 58.9454 51.648 58.8839 51.5319C58.8224 51.4158 58.7387 51.313 58.6375 51.2293C58.5363 51.1456 58.4195 51.0826 58.294 51.044L53 49.415V37.315C53 37.0498 52.8946 36.7954 52.7071 36.6079C52.5196 36.4204 52.2652 36.315 52 36.315C51.7348 36.315 51.4804 36.4204 51.2929 36.6079C51.1054 36.7954 51 37.0498 51 37.315V48.8L48 47.877V44C48 43.7348 47.8946 43.4804 47.7071 43.2929C47.5196 43.1054 47.2652 43 47 43C46.7348 43 46.4804 43.1054 46.2929 43.2929C46.1054 43.4804 46 43.7348 46 44V47.262L43 46.338V34.738C43.8932 35.3627 44.9209 35.7683 46 35.922V38C46 38.2652 46.1054 38.5196 46.2929 38.7071C46.4804 38.8946 46.7348 39 47 39C47.2652 39 47.5196 38.8946 47.7071 38.7071C47.8946 38.5196 48 38.2652 48 38V35.92C49.6512 35.6837 51.1634 34.8648 52.2637 33.6112C53.364 32.3576 53.9799 30.7519 54 29.084C54.0202 27.4162 53.4434 25.796 52.3737 24.5162C51.304 23.2364 49.812 22.3812 48.167 22.105L41.767 12.775C42.1978 11.1767 42.0377 9.47671 41.316 7.987C41.2647 7.86049 41.188 7.74583 41.0907 7.65007C40.9934 7.55432 40.8775 7.47951 40.7502 7.43024C40.6229 7.38098 40.4868 7.3583 40.3504 7.36362C40.214 7.36893 40.0801 7.40212 39.957 7.46114C39.8339 7.52016 39.7242 7.60376 39.6346 7.70679C39.5451 7.80983 39.4775 7.9301 39.4362 8.06022C39.3949 8.19034 39.3807 8.32754 39.3944 8.46337C39.4081 8.59919 39.4495 8.73077 39.516 8.85C39.8367 9.52125 40.0021 10.2561 40 11C40.0033 12.0881 39.6526 13.1477 39.0008 14.019C38.3491 14.8904 37.4316 15.526 36.3869 15.8302C35.3422 16.1344 34.2269 16.0905 33.2093 15.7052C32.1917 15.3199 31.327 14.6142 30.7457 13.6944C30.1644 12.7745 29.898 11.6906 29.9867 10.6062C30.0755 9.52168 30.5145 8.49549 31.2376 7.68241C31.9607 6.86934 32.9286 6.3135 33.9953 6.09876C35.062 5.88403 36.1696 6.02205 37.151 6.492C37.2703 6.559 37.402 6.60081 37.5381 6.61484C37.6742 6.62888 37.8117 6.61484 37.9422 6.57361C38.0726 6.53237 38.1932 6.4648 38.2965 6.37509C38.3998 6.28538 38.4835 6.17542 38.5426 6.05204C38.6017 5.92865 38.6349 5.79445 38.64 5.65774C38.6452 5.52103 38.6222 5.38472 38.5726 5.25724C38.5229 5.12976 38.4476 5.01382 38.3514 4.9166C38.2551 4.81937 38.14 4.74293 38.013 4.692C37.0736 4.23737 36.0436 4.00082 35 4C33.2001 4.00226 31.4702 4.69778 30.1696 5.9421C28.869 7.18642 28.0978 8.88391 28.016 10.682L20.8 15.349C20.1303 15.0835 19.4108 14.967 18.6916 15.0078C17.9723 15.0485 17.2706 15.2455 16.6352 15.585C15.9998 15.9245 15.446 16.3984 15.0123 16.9736C14.5786 17.5489 14.2755 18.2117 14.124 18.916L7.461 23.156C7.26624 23.2793 7.12005 23.4661 7.04716 23.6847C6.97427 23.9034 6.97916 24.1405 7.061 24.356L10.061 32.356C10.1334 32.5461 10.2621 32.7096 10.4299 32.8247C10.5977 32.9398 10.7966 33.0009 11 33C11.1074 32.9997 11.214 32.9825 11.316 32.949L14.316 31.949C14.548 31.8718 14.7437 31.7122 14.8661 31.5005C14.9884 31.2888 15.0289 31.0396 14.98 30.8L14.13 26.549L17.652 24.788C18.5305 25.0662 19.4735 25.0662 20.352 24.788L23.873 26.549L23.02 30.8C22.9721 31.039 23.0132 31.2872 23.1355 31.4981C23.2577 31.7089 23.4528 31.8679 23.684 31.945L26.684 32.945C26.7858 32.9798 26.8924 32.9984 27 33C27.2037 33.0001 27.4026 32.938 27.57 32.8221C27.7375 32.7061 27.8655 32.5417 27.937 32.351L30.937 24.351C31.0188 24.1355 31.0237 23.8984 30.9508 23.6797C30.8779 23.4611 30.7318 23.2743 30.537 23.151L25.427 19.9L31.333 16.947C32.4331 17.6334 33.7033 17.9982 35 18C35.1 18 35.206 17.989 35.309 17.984L40.38 26.744C40.048 27.7037 39.9315 28.7248 40.0386 29.7346C40.1458 30.7445 40.474 31.7183 41 32.587V45.723L38.765 45.035C37.8682 44.7542 36.9176 44.6901 35.9913 44.8479C35.0649 45.0057 34.1892 45.381 33.436 45.943C32.8741 46.3557 32.3882 46.8629 32 47.442C31.5425 46.7622 30.9524 46.182 30.265 45.736C29.5776 45.2901 28.8072 44.9877 28 44.847V37C28 36.7348 27.8946 36.4804 27.7071 36.2929C27.5196 36.1054 27.2652 36 27 36H11C10.7348 36 10.4804 36.1054 10.2929 36.2929C10.1054 36.4804 10 36.7348 10 37V46.461C10 46.7262 10.1054 46.9806 10.2929 47.1681C10.4804 47.3556 10.7348 47.461 11 47.461C11.2652 47.461 11.5196 47.3556 11.7071 47.1681C11.8946 46.9806 12 46.7262 12 46.461V38H15V41C15 41.2652 15.1054 41.5196 15.2929 41.7071C15.4804 41.8946 15.7348 42 16 42H22C22.2652 42 22.5196 41.8946 22.7071 41.7071C22.8946 41.5196 23 41.2652 23 41V38H26V44.856C25.7414 44.8993 25.4859 44.9591 25.235 45.035L5.706 51.044C5.50155 51.1069 5.32265 51.2337 5.19558 51.4057C5.06851 51.5778 4.99996 51.7861 5 52V55.565L2.8 56.021C2.5743 56.0671 2.37142 56.1897 2.22565 56.368C2.07989 56.5464 2.00018 56.7696 2 57V61C2 61.2652 2.10536 61.5196 2.29289 61.7071C2.48043 61.8946 2.73478 62 3 62C3.04581 62 3.09158 61.997 3.137 61.991L25.584 58.891C25.8851 58.8492 26.1918 58.8725 26.4831 58.9594C26.7745 59.0463 27.0438 59.1948 27.2728 59.3947C27.5018 59.5947 27.6853 59.8414 27.8107 60.1184C27.9362 60.3953 28.0007 60.696 28 61C28 61.2652 28.1054 61.5196 28.2929 61.7071C28.4804 61.8946 28.7348 62 29 62H35C35.2652 62 35.5196 61.8946 35.7071 61.7071C35.8946 61.5196 36 61.2652 36 61C36.0005 60.6967 36.066 60.3971 36.1921 60.1212C36.3181 59.8454 36.5017 59.5997 36.7306 59.4008C36.9595 59.2018 37.2283 59.0542 37.5191 58.9678C37.8098 58.8814 38.1156 58.8583 38.416 58.9L43.893 59.655C44.1558 59.6912 44.4223 59.6215 44.6337 59.4613C44.8452 59.301 44.9843 59.0633 45.0205 58.8005C45.0567 58.5377 44.987 58.2712 44.8268 58.0598C44.6665 57.8483 44.4288 57.7092 44.166 57.673L38.689 56.918C37.6819 56.779 36.659 57.0166 35.8163 57.5854C34.9737 58.1541 34.3707 59.014 34.123 60H29.877C29.6303 59.0131 29.0278 58.1521 28.185 57.5823C27.3423 57.0125 26.3188 56.7742 25.311 56.913L4 59.853V57.814L15.462 55.443C15.7164 55.3846 15.938 55.2291 16.0793 55.0096C16.2206 54.7901 16.2704 54.524 16.2182 54.2683C16.166 54.0125 16.0158 53.7873 15.7998 53.6407C15.5837 53.4942 15.319 53.438 15.062 53.484L7 55.151V52.739L25.823 46.946C26.4214 46.7618 27.0547 46.7206 27.6719 46.8257C28.2891 46.9309 28.873 47.1795 29.3766 47.5515C29.8802 47.9235 30.2894 48.4085 30.5714 48.9675C30.8534 49.5265 31.0002 50.1439 31 50.77C31.0053 50.8088 31.0129 50.8472 31.023 50.885C31.0127 50.9228 31.0051 50.9612 31 51V51.921C30.4342 51.4926 29.7832 51.1903 29.0909 51.0342C28.3986 50.8781 27.6809 50.8719 26.986 51.016L18.974 52.674C18.8454 52.7007 18.7233 52.7524 18.6146 52.8262C18.506 52.9001 18.413 52.9946 18.3408 53.1044C18.2687 53.2142 18.219 53.3372 18.1944 53.4662C18.1698 53.5952 18.1708 53.7279 18.1975 53.8565C18.2242 53.9851 18.2759 54.1072 18.3497 54.2159C18.4236 54.3245 18.5181 54.4175 18.6279 54.4897C18.7377 54.5618 18.8607 54.6115 18.9897 54.6361C19.1187 54.6607 19.2514 54.6597 19.38 54.633L27.392 52.975C27.8282 52.8847 28.2791 52.8927 28.7119 52.9984C29.1446 53.1041 29.5484 53.3049 29.8939 53.5861C30.2394 53.8674 30.5179 54.222 30.7092 54.6243C30.9006 55.0266 30.9999 55.4665 31 55.912C31 56.1772 31.1054 56.4316 31.2929 56.6191C31.4804 56.8066 31.7348 56.912 32 56.912C32.2652 56.912 32.5196 56.8066 32.7071 56.6191C32.8946 56.4316 33 56.1772 33 55.912C33.0001 55.4665 33.0994 55.0266 33.2908 54.6243C33.4821 54.222 33.7606 53.8674 34.1061 53.5861C34.4516 53.3049 34.8554 53.1041 35.2881 52.9984C35.7209 52.8927 36.1718 52.8847 36.608 52.975L60 57.814V59.853L48.133 58.216C48.0027 58.1964 47.8698 58.2031 47.7421 58.2357C47.6145 58.2683 47.4946 58.326 47.3896 58.4056C47.2846 58.4852 47.1966 58.5849 47.1307 58.699C47.0648 58.8131 47.0224 58.9393 47.006 59.07C46.9698 59.3325 47.0393 59.5987 47.1993 59.81C47.3592 60.0213 47.5965 60.1605 47.859 60.197L60.859 61.991C60.9057 61.9971 60.9529 62.0001 61 62C61.2652 62 61.5196 61.8946 61.7071 61.7071C61.8946 61.5196 62 61.2652 62 61V57C61.9998 56.7696 61.9201 56.5464 61.7743 56.368C61.6286 56.1897 61.4257 56.0671 61.2 56.021ZM52 29C52 29.9889 51.7068 30.9556 51.1573 31.7779C50.6079 32.6001 49.827 33.241 48.9134 33.6194C47.9998 33.9978 46.9945 34.0969 46.0245 33.9039C45.0546 33.711 44.1637 33.2348 43.4645 32.5355C42.7652 31.8363 42.289 30.9454 42.0961 29.9755C41.9031 29.0055 42.0022 28.0002 42.3806 27.0866C42.759 26.173 43.3999 25.3921 44.2221 24.8427C45.0444 24.2932 46.0111 24 47 24C48.3256 24.0016 49.5964 24.5289 50.5338 25.4662C51.4711 26.4036 51.9984 27.6744 52 29V29ZM12.553 25.105C12.356 25.2034 12.197 25.364 12.1006 25.562C12.0042 25.76 11.9759 25.9843 12.02 26.2L12.847 30.335L11.598 30.751L9.221 24.408L14.179 21.253C14.4094 22.1495 14.8852 22.964 15.553 23.605L12.553 25.105ZM16 20C16 19.4067 16.1759 18.8266 16.5056 18.3333C16.8352 17.8399 17.3038 17.4554 17.8519 17.2284C18.4001 17.0013 19.0033 16.9419 19.5853 17.0576C20.1672 17.1734 20.7018 17.4591 21.1213 17.8787C21.5409 18.2982 21.8266 18.8328 21.9424 19.4147C22.0581 19.9967 21.9987 20.5999 21.7716 21.1481C21.5446 21.6962 21.1601 22.1648 20.6667 22.4944C20.1734 22.8241 19.5933 23 19 23C18.2044 23 17.4413 22.6839 16.8787 22.1213C16.3161 21.5587 16 20.7956 16 20V20ZM28.779 24.408L26.4 30.747L25.151 30.331L25.98 26.2C26.0232 25.9849 25.9944 25.7615 25.898 25.5643C25.8017 25.3672 25.6432 25.2072 25.447 25.109L22.447 23.609C23.1148 22.968 23.5906 22.1535 23.821 21.257L28.779 24.408ZM23.747 18.508C23.5225 17.7802 23.1338 17.1138 22.611 16.56L28.269 12.9C28.5431 13.8725 29.0256 14.7737 29.683 15.541L23.747 18.508ZM37.382 17.574C38.7731 17.0675 39.9692 16.1353 40.8 14.91L45.747 22.118C44.0654 22.4263 42.5547 23.3394 41.5 24.685L37.382 17.574ZM21 40H17V38H21V40Z" fill="#323232" id="id_168"></path>
</svg>