<svg version="1.1" xmlns="http://www.w3.org/2000/svg" xmlns:xlink="http://www.w3.org/1999/xlink" x="0px" y="0px" viewBox="0 0 64 64" enable-background="new 0 0 64 64" xml:space="preserve">
<g id="guide">
</g>
<g id="object">
<g>
<line fill="none" stroke="#e6c317" stroke-width="2" stroke-miterlimit="10" x1="40" y1="51" x2="38" y2="51" id="id_101"></line>
<path fill="none" stroke="#e3c012" stroke-width="2" stroke-miterlimit="10" d="M36,51H15c-1.1,0-2-0.9-2-2V15c0-1.1,0.9-2,2-2h34
			c1.1,0,2,0.9,2,2v34c0,1.1-0.9,2-2,2h-7" id="id_102"></path>
<line fill="none" stroke="#edc913" stroke-width="2" stroke-miterlimit="10" x1="25" y1="17" x2="27" y2="17" id="id_103"></line>
<path fill="none" stroke="#f0cc18" stroke-width="2" stroke-miterlimit="10" d="M29,17h16c1.1,0,2,0.9,2,2v26c0,1.1-0.9,2-2,2H19
			c-1.1,0-2-0.9-2-2V19c0-1.1,0.9-2,2-2h4" id="id_104"></path>
<line fill="none" stroke="#f2cd13" stroke-width="2" stroke-miterlimit="10" x1="17" y1="10" x2="17" y2="2" id="id_105"></line>
<line fill="none" stroke="#f5cf13" stroke-width="2" stroke-miterlimit="10" x1="27" y1="10" x2="27" y2="2" id="id_106"></line>
<line fill="none" stroke="#e3bf0d" stroke-width="2" stroke-miterlimit="10" x1="37" y1="10" x2="37" y2="2" id="id_107"></line>
<line fill="none" stroke="#ebc711" stroke-width="2" stroke-miterlimit="10" x1="47" y1="10" x2="47" y2="2" id="id_108"></line>
<line fill="none" stroke="#fad30f" stroke-width="2" stroke-miterlimit="10" x1="17" y1="62" x2="17" y2="54" id="id_109"></line>
<line fill="none" stroke="#e8c309" stroke-width="2" stroke-miterlimit="10" x1="27" y1="62" x2="27" y2="54" id="id_110"></line>
<line fill="none" stroke="#dbb90d" stroke-width="2" stroke-miterlimit="10" x1="37" y1="62" x2="37" y2="54" id="id_111"></line>
<line fill="none" stroke="#e3c012" stroke-width="2" stroke-miterlimit="10" x1="47" y1="62" x2="47" y2="54" id="id_112"></line>
<line fill="none" stroke="#e8c309" stroke-width="2" stroke-miterlimit="10" x1="54" y1="17" x2="62" y2="17" id="id_113"></line>
<line fill="none" stroke="#e8c61c" stroke-width="2" stroke-miterlimit="10" x1="54" y1="27" x2="62" y2="27" id="id_114"></line>
<line fill="none" stroke="#e3c119" stroke-width="2" stroke-miterlimit="10" x1="54" y1="37" x2="62" y2="37" id="id_115"></line>
<line fill="none" stroke="#debd1b" stroke-width="2" stroke-miterlimit="10" x1="54" y1="47" x2="62" y2="47" id="id_116"></line>
<line fill="none" stroke="#e3c21c" stroke-width="2" stroke-miterlimit="10" x1="2" y1="17" x2="10" y2="17" id="id_117"></line>
<line fill="none" stroke="#e6c210" stroke-width="2" stroke-miterlimit="10" x1="2" y1="27" x2="10" y2="27" id="id_118"></line>
<line fill="none" stroke="#f0cc16" stroke-width="2" stroke-miterlimit="10" x1="2" y1="37" x2="10" y2="37" id="id_119"></line>
<line fill="none" stroke="#e0bf1d" stroke-width="2" stroke-miterlimit="10" x1="2" y1="47" x2="10" y2="47" id="id_120"></line>
<line fill="none" stroke="#edc811" stroke-width="2" stroke-linejoin="round" stroke-miterlimit="10" x1="17" y1="23" x2="33" y2="23" id="id_121"></line>
<circle fill="none" stroke="#e0bd10" stroke-width="2" stroke-miterlimit="10" cx="35" cy="31" r="2" id="id_122"></circle>
<circle fill="none" stroke="#d9b91a" stroke-width="2" stroke-miterlimit="10" cx="23" cy="34" r="2" id="id_123"></circle>
<polyline fill="none" stroke="#f5cf13" stroke-width="2" stroke-linejoin="round" stroke-miterlimit="10" points="42,18 42,31 
			36,31 		" id="id_124"></polyline>
<polyline fill="none" stroke="#e8c517" stroke-width="2" stroke-linejoin="round" stroke-miterlimit="10" points="17,28 29,28 
			29,38 39,38 		" id="id_125"></polyline>
<polyline fill="none" stroke="#e6c317" stroke-width="2" stroke-linejoin="round" stroke-miterlimit="10" points="34,47 34,42 
			23,42 23,36 		" id="id_126"></polyline>
<rect x="39" y="36" fill="none" stroke="#e3c21d" stroke-width="2" stroke-linejoin="round" stroke-miterlimit="10" width="4" height="4" id="id_127"></rect>
<rect x="33" y="21" fill="none" stroke="#e3c012" stroke-width="2" stroke-linejoin="round" stroke-miterlimit="10" width="4" height="4" id="id_128"></rect>
</g>
</g>
<g id="tag" display="none">
</g>
</svg>