<svg xmlns="http://www.w3.org/2000/svg" xml:space="preserve" width="2.66666in" height="2.66666in" version="1.1" style="shape-rendering:geometricPrecision; text-rendering:geometricPrecision; image-rendering:optimizeQuality; fill-rule:evenodd; clip-rule:evenodd" viewBox="0 0 2666.66 2666.66" xmlns:xlink="http://www.w3.org/1999/xlink" xmlns:xodm="http://www.corel.com/coreldraw/odm/2003">
<defs>
<style type="text/css">
   
    .fil1 {fill:#FEFEFE}
    .fil0 {fill:#5E162A}
   
  </style>
</defs>
<g id="Layer_x0020_1">
<metadata id="CorelCorpID_0Corel-Layer"></metadata>
<circle class="fil0" cx="1333.33" cy="1333.33" r="1333.33" id="id_128" style="fill: rgb(191, 177, 53);"></circle>
<path class="fil1" d="M780.81 1472.14c-73.65,0 -133.59,-59.92 -133.59,-133.58l0 -297.03c0,-10.83 8.79,-19.63 19.63,-19.63l227.93 0c10.83,0 19.63,8.8 19.63,19.63l0 297.04c0,73.66 -59.92,133.58 -133.59,133.58z" id="id_129"></path>
<path class="fil1" d="M1885.84 1472.14c-73.65,0 -133.59,-59.92 -133.59,-133.58l0 -297.03c0,-10.83 8.8,-19.63 19.63,-19.63l227.91 0c10.83,0 19.63,8.8 19.63,19.63l0 297.04c0.02,73.66 -59.92,133.58 -133.57,133.58z" id="id_130"></path>
<path class="fil1" d="M1885.84 913.09c-57.18,0 -103.7,-46.51 -103.7,-103.68 0,-57.17 46.52,-103.68 103.7,-103.68 57.18,0 103.7,46.52 103.7,103.68 0,57.17 -46.52,103.68 -103.7,103.68z" id="id_131"></path>
<path class="fil1" d="M780.81 913.09c-57.18,0 -103.68,-46.51 -103.68,-103.68 0,-57.17 46.52,-103.68 103.68,-103.68 57.17,0 103.69,46.52 103.69,103.68 0,57.17 -46.51,103.68 -103.69,103.68z" id="id_132"></path>
<path class="fil1" d="M2151.12 845.38l-181.21 0c-47.39,0 -47.37,-71.96 0,-71.96l181.21 0c47.39,0 47.39,71.96 0,71.96zm-349.35 0l-181.21 0c-47.39,0 -47.37,-71.96 0,-71.96l181.21 0c47.39,0 47.39,71.96 0,71.96zm84.07 232.13c-19.86,0 -35.98,-16.12 -35.98,-35.98l0 -148.07c0,-47.38 71.96,-47.38 71.96,0l0 148.07c0,19.87 -16.11,35.97 -35.98,35.97zm-839.74 -232.13l-181.22 0c-47.39,0 -47.39,-71.96 0,-71.96l181.22 0c47.37,0 47.39,71.96 0,71.96zm-349.34 0l-181.22 0c-47.38,0 -47.38,-71.96 0,-71.96l181.21 0c47.38,0 47.39,71.96 0.02,71.96zm84.06 232.13c-19.86,0 -35.98,-16.12 -35.98,-35.98l0 -148.07c0,-47.39 71.96,-47.39 71.96,0l0 148.07c0,19.87 -16.11,35.97 -35.98,35.97z" id="id_133"></path>
<path class="fil1" d="M1488.57 1850.22l-310.49 0c-30.86,0 -55.96,-25.12 -55.96,-55.98l0 -189.44c0,-30.86 25.11,-55.96 55.96,-55.96l310.49 -0c30.87,0 55.97,25.12 55.97,55.96l0 189.44c0,30.87 -25.12,55.98 -55.97,55.98zm-155.24 -71.31c-104.47,0 -104.48,-158.78 0,-158.78 104.5,0 104.49,158.78 0,158.78zm0 -119.52c-52.82,0 -52.8,80.24 0,80.24 52.81,0 52.81,-80.24 0,-80.24z" id="id_134"></path>
<path class="fil1" d="M1607.94 1440.69l-549.22 0c-10.83,0 -19.63,-8.8 -19.63,-19.63l0 -282.66c0,-46.89 38.15,-85.05 85.05,-85.05l34.61 0 0 260.31c0,10.83 8.81,19.63 19.63,19.63l309.91 0c10.84,0 19.65,-8.78 19.63,-19.63l0 -260.31 34.62 0c46.89,0 85.05,38.15 85.05,85.05l0 282.65c0,10.84 -8.81,19.64 -19.65,19.64zm-191.18 -195.25c-27.94,0 -19.63,-43.29 -19.63,-84.6 0,-25.83 39.26,-25.83 39.26,0 0,41.37 8.31,84.6 -19.63,84.6zm-83.43 0c-27.94,0 -19.63,-43.29 -19.63,-84.6 0,-25.84 39.25,-25.84 39.25,0 0,41.32 8.31,84.6 -19.63,84.6zm-83.43 0c-27.94,0 -19.63,-43.29 -19.63,-84.6 0,-25.84 39.26,-25.84 39.26,0 0,41.35 8.31,84.6 -19.63,84.6zm-51.9 -192.09l270.66 0 0 240.69 -270.66 0 0 -240.69z" id="id_135"></path>
<path class="fil1" d="M840.4 1888.98l85.56 0c47.38,0 47.39,71.96 0,71.96l-261.69 0c-47.39,0 -47.39,-71.96 0,-71.96l102.25 0 77.52 -334.35c1.85,-7.96 6.35,-15.07 12.77,-20.13l179.63 -141.69c36.98,-29.17 81.54,27.33 44.57,56.5l-169.71 133.88 -70.89 305.8zm1059.75 0l102.25 0c47.38,0 47.38,71.96 0,71.96l-261.69 0c-47.39,0 -47.38,-71.96 0,-71.96l85.57 0 -70.91 -305.8 -169.69 -133.87c-36.98,-29.18 7.59,-85.66 44.56,-56.5l179.63 141.7c6.42,5.06 10.92,12.17 12.77,20.13l77.52 334.34zm-841.43 -540.59l-163.94 0c-47.39,0 -47.39,-71.96 0,-71.96l163.94 0c47.39,0 47.39,71.96 0,71.96zm0 -130.76l-163.94 0c-47.39,0 -47.39,-71.96 0,-71.96l163.94 0c47.39,0 47.39,71.96 0,71.96zm713.18 130.76l-163.94 0c-47.39,0 -47.37,-71.96 0,-71.96l163.94 0c47.39,0 47.39,71.96 0,71.96zm0 -130.76l-163.94 0c-47.39,0 -47.37,-71.96 0,-71.96l163.94 0c47.39,0 47.39,71.96 0,71.96zm-362.01 386.83c-19.86,0 -35.98,-16.12 -35.98,-35.98l0 -147.42c0,-47.39 71.96,-47.38 71.96,0l0 147.41c0,19.86 -16.12,35.99 -35.98,35.99zm-153.12 0c-19.85,0 -35.98,-16.12 -35.98,-35.98l0 -147.42c0,-47.39 71.96,-47.38 71.96,0l0 147.41c0,19.87 -16.11,35.99 -35.98,35.99z" id="id_136"></path>
</g>
</svg>